<?xml version="1.0" encoding="utf-8"?>
<svg version="1.1" xmlns:xlink="http://www.w3.org/1999/xlink" width="224px" height="24px" xmlns="http://www.w3.org/2000/svg">
  <defs>
    <mask fill="white" id="clip1">
      <path d="M 12 24  C 5.27999999999997 24  0 18.72  0 12  C 0 5.28  5.27999999999997 0  12 0  L 51 0  L 212 0  C 218.72 0  224 5.28  224 12  C 224 18.72  218.72 24  212 24  L 12 24  Z " fill-rule="evenodd" />
    </mask>
  </defs>
  <g transform="matrix(1 0 0 1 -400 -132 )">
    <path d="M 12 24  C 5.27999999999997 24  0 18.72  0 12  C 0 5.28  5.27999999999997 0  12 0  L 51 0  L 212 0  C 218.72 0  224 5.28  224 12  C 224 18.72  218.72 24  212 24  L 12 24  Z " fill-rule="nonzero" fill="#ffffff" stroke="none" transform="matrix(1 0 0 1 400 132 )" />
    <path d="M 12 24  C 5.27999999999997 24  0 18.72  0 12  C 0 5.28  5.27999999999997 0  12 0  L 51 0  L 212 0  C 218.72 0  224 5.28  224 12  C 224 18.72  218.72 24  212 24  L 12 24  Z " stroke-width="2" stroke="#797979" fill="none" transform="matrix(1 0 0 1 400 132 )" mask="url(#clip1)" />
  </g>
</svg>